{"title":"Seventh Son 2015 720p HDTS Line x264 Pimp4003","uid":11722892,"size":1803003310,"categoryP":"video","categoryS":"movies","magnet":"?xt=urn:btih:43c83dc725e7c4e3d5197eeae60ea3b7811428b1&amp;dn=Seventh+Son+2015+720p+HDTS+Line+x264+Pimp4003&amp;tr=udp%3A%2F%2Ftracker.openbittorrent.com%3A80&amp;tr=udp%3A%2F%2Fopen.demonii.com%3A1337&amp;tr=udp%3A%2F%2Ftracker.coppersurfer.tk%3A6969&amp;tr=udp%3A%2F%2Fexodus.desync.com%3A6969","seeders":33,"leechers":1,"uploader":"shawnmurthy","files":1,"time":1424926882,"description":"BETTER THEN MY FIRST VIDEO AND OFFOCURSE AUDIO IS LINE...VIDEO WAS DARK AT PLACES HERE AND THERE...DID SOME WORK ON THAT AND SYNCED UP THE AUDIO GOOD......ENJOY...PIMP4003\n\nSCREENSHOTS GO HERE..pimp4003DOTnet/torrents.php?id=43c83dc725e7c4e3d5197eeae60ea3b7811428b1\n\nI am looking for: Pre-Retail Supplier Unreleased DVD/BluRay/Web-Dls/R5/CAM/TS If you have something to offer, please contact ME: &lt;a class=&quot;__cf_email__&quot; href=&quot;/cdn-cgi/l/email-protection&quot; data-cfemail=&quot;86f6efebf6b2b6b6b5c6eef3f5eeebe7efeaa8e5e9eba8&quot;&gt;[email&amp;#160;protected]&lt;/a&gt;&lt;script cf-hash='f9e31' type=&quot;text/javascript&quot;&gt;\n/* &lt;![CDATA[ */!function(){try{var t=&quot;currentScript&quot;in document?document.currentScript:function(){for(var t=document.getElementsByTagName(&quot;script&quot;),e=t.length;e--;)if(t[e].getAttribute(&quot;cf-hash&quot;))return t[e]}();if(t&amp;&amp;t.previousSibling){var e,r,n,i,c=t.previousSibling,a=c.getAttribute(&quot;data-cfemail&quot;);if(a){for(e=&quot;&quot;,r=parseInt(a.substr(0,2),16),n=2;a.length-n;n+=2)i=parseInt(a.substr(n,2),16)^r,e+=String.fromCharCode(i);e=document.createTextNode(e),c.parentNode.replaceChild(e,c)}}}catch(u){}}();/* ]]&gt; */&lt;/script&gt; WE CAN WORK OUT A GREAT DEAL THAT WORKS OUT FOR EVERY PARTY.\n &lt;a href=&quot;\nhttp://i.imgur.com/J3ny9bJ.jpg&quot; rel=&quot;nofollow&quot; target=&quot;_NEW&quot;&gt;\nhttp://i.imgur.com/J3ny9bJ.jpg&lt;/a&gt;\n &lt;a href=&quot;\nhttp://i.imgur.com/SpsuXOR.png&quot; rel=&quot;nofollow&quot; target=&quot;_NEW&quot;&gt;\nhttp://i.imgur.com/SpsuXOR.png&lt;/a&gt;\n\nPIMP THE ONE AND ONLY PIMPSTER.....PRESENTS\n\nfacebookDOTcom/OfficialPimp4003\n\ntwitterDOTcom/KingPimp4003\n &lt;a href=&quot;\nhttp://i.imgur.com/vBLdvq0.jpg&quot; rel=&quot;nofollow&quot; target=&quot;_NEW&quot;&gt;\nhttp://i.imgur.com/vBLdvq0.jpg&lt;/a&gt;\n\nSeventh Son 2015 720p HDTS Line x264 Pimp4003\n &lt;a href=&quot;\nhttp://www.imdb.com/title/tt1121096/&quot; rel=&quot;nofollow&quot; target=&quot;_NEW&quot;&gt;\nhttp://www.imdb.com/title/tt1121096/&lt;/a&gt;\n\nYoung Thomas is apprenticed to the local Spook to learn to fight evil spirits. His first great challenge comes when the powerful Mother Malkin escapes her confinement while the Spook is away.\n\nDirector: Sergey Bodrov (as Sergei Bodrov)\nWriters: Charles Leavitt (screenplay), Steven Knight (screenplay), 2 more credits Â»\nStars: Ben Barnes, Julianne Moore, Jeff Bridges | See full cast and crew Â»\n\nVideo\nID                                       : 1\nFormat                                   : MPEG-4 Visual\nFormat profile                           : Simple@L3\nFormat settings, BVOP                    : No\nFormat settings, QPel                    : No\nFormat settings, GMC                     : No warppoints\nFormat settings, Matrix                  : Default (H.263)\nCodec ID                                 : 20\nDuration                                 : 1h 35mn\nBit rate                                 : 2 392 Kbps\nWidth                                    : 1 280 pixels\nHeight                                   : 536 pixels\nDisplay aspect ratio                     : 2.40:1\nFrame rate mode                          : Variable\nFrame rate                               : 59.940 fps\nMinimum frame rate                       : 59.916 fps\nMaximum frame rate                       : 60.157 fps\nColor space                              : YUV\nChroma subsampling                       : 4:2:0\nBit depth                                : 8 bits\nScan type                                : Progressive\nCompression mode                         : Lossy\nBits/(Pixel*Frame)                       : 0.058\nStream size                              : 1.59 GiB (95%)\nWriting library                          : ZJMedia MPEG Encoder\n\nAudio\nID                                       : 2\nFormat                                   : AAC\nFormat/Info                              : Advanced Audio Codec\nFormat profile                           : LC\nCodec ID                                 : 40\nDuration                                 : 1h 35mn\nBit rate mode                            : Variable\nBit rate                                 : 128 Kbps\nChannel(s)                               : 2 channels\nChannel positions                        : Front: L R\nSampling rate                            : 48.0 KHz\nCompression mode                         : Lossy\nStream size                              : 87.2 MiB (5%)\nLanguage                                 : English","torrent":{"xt":"urn:btih:43c83dc725e7c4e3d5197eeae60ea3b7811428b1","amp;dn":"Seventh+Son+2015+720p+HDTS+Line+x264+Pimp4003","amp;tr":["udp%3A%2F%2Ftracker.openbittorrent.com%3A80","udp%3A%2F%2Fopen.demonii.com%3A1337","udp%3A%2F%2Ftracker.coppersurfer.tk%3A6969","udp%3A%2F%2Fexodus.desync.com%3A6969"],"infoHash":"43c83dc725e7c4e3d5197eeae60ea3b7811428b1","infoHashBuffer":{"type":"Buffer","data":[67,200,61,199,37,231,196,227,213,25,126,234,230,14,163,183,129,20,40,177]},"announce":[],"urlList":[]}}